<?xml version="1.0" standalone="no"?>
<!DOCTYPE svg PUBLIC "-//W3C//DTD SVG 20010904//EN"
 "http://www.w3.org/TR/2001/REC-SVG-20010904/DTD/svg10.dtd">
<svg version="1.0" xmlns="http://www.w3.org/2000/svg"
 width="200.000000pt" height="190.000000pt" viewBox="0 0 200.000000 190.000000"
 preserveAspectRatio="xMidYMid meet">

<g transform="translate(0.000000,190.000000) scale(0.100000,-0.100000)"
fill="#000000" stroke="none">
<path d="M900 1885 c-47 -6 -117 -19 -155 -28 -72 -17 -212 -70 -230 -88 -6
-6 56 -9 185 -9 l195 2 5 -159 c6 -176 15 -208 57 -192 19 7 26 4 39 -17 9
-13 19 -22 22 -19 3 2 11 0 18 -6 8 -6 20 -9 29 -6 8 4 17 2 19 -2 3 -5 17 -6
31 -3 18 3 31 -2 44 -16 13 -16 21 -18 29 -10 8 8 15 8 24 1 17 -14 68 -22 68
-12 0 13 56 5 74 -10 12 -10 23 -10 51 -1 71 24 125 20 180 -11 29 -16 61 -29
73 -29 21 0 22 -3 22 -126 0 -111 3 -131 21 -160 11 -19 17 -34 14 -34 -4 0
-3 -6 2 -12 5 -7 15 -32 23 -55 11 -35 11 -50 0 -85 -7 -24 -12 -59 -11 -79 0
-22 -5 -42 -14 -49 -9 -7 -13 -21 -10 -30 6 -18 -2 -21 -94 -37 -29 -5 -33 -3
-28 11 4 9 2 16 -3 16 -16 0 -21 -19 -11 -38 8 -15 2 -27 -35 -65 -24 -25 -44
-50 -44 -55 0 -22 -55 -61 -99 -71 -71 -15 -98 -28 -115 -53 -16 -24 -49 -132
-48 -158 0 -27 21 -142 26 -147 9 -9 111 26 201 70 269 131 463 375 520 652
21 100 21 267 2 360 -72 343 -348 629 -697 724 -58 16 -291 55 -294 50 -1 -1
-39 -7 -86 -14z"/>
<path d="M409 1708 c-87 -58 -198 -171 -258 -262 -234 -360 -191 -815 107
-1127 212 -223 521 -337 832 -308 52 5 101 11 108 14 23 8 2 25 -30 25 -17 0
-60 14 -95 31 -56 27 -66 37 -88 83 -14 29 -28 68 -31 87 -4 19 -19 49 -33 66
-14 18 -38 48 -53 67 -16 18 -28 36 -28 40 0 27 -61 130 -99 166 -39 38 -54
46 -91 48 -24 2 -47 5 -51 8 -19 11 -60 -21 -71 -57 -6 -21 -22 -48 -35 -61
-24 -23 -24 -23 -56 -4 -18 11 -45 26 -62 34 -44 23 -93 77 -100 109 -13 58
-39 104 -79 137 -80 67 -175 164 -178 182 -3 18 9 19 228 22 l231 2 6 188 c10
266 9 552 -2 552 -5 0 -37 -19 -72 -42z"/>
<path d="M902 1300 c-61 -22 -95 -44 -98 -65 -2 -14 3 -16 69 -19 24 -2 45
-36 22 -36 -10 0 -13 5 -9 11 4 7 1 10 -7 7 -8 -3 -13 -10 -12 -16 1 -5 -16
-12 -37 -14 -22 -2 -40 -1 -40 3 0 3 -15 5 -34 5 -35 -2 -66 -20 -66 -40 0 -8
2 -8 8 0 4 6 17 13 30 17 39 9 20 -15 -31 -41 -41 -20 -64 -52 -37 -52 5 0 7
-6 4 -14 -3 -8 -13 -12 -22 -9 -14 4 -15 3 -2 -6 11 -7 19 -6 32 6 10 9 16 19
13 23 -14 23 120 96 158 86 12 -3 30 3 44 14 20 16 29 17 51 8 15 -7 33 -17
41 -25 13 -11 12 -15 -1 -30 -9 -10 -17 -22 -17 -28 0 -5 -4 -11 -10 -13 -6
-2 -11 2 -11 8 0 7 -7 10 -15 6 -8 -3 -27 5 -42 17 -22 18 -36 21 -67 17 -34
-4 -37 -7 -23 -18 8 -7 15 -22 14 -32 -1 -15 -7 -18 -27 -13 -14 3 -32 12 -40
19 -12 12 -11 14 8 14 12 0 22 5 22 10 0 14 -12 12 -38 -6 -12 -8 -20 -19 -17
-24 3 -5 1 -11 -5 -15 -20 -12 -9 -24 38 -41 26 -10 52 -21 58 -25 6 -5 16 -3
22 3 18 18 23 5 12 -31 -7 -27 -7 -32 5 -27 23 8 18 -11 -7 -28 -17 -12 -20
-18 -10 -28 9 -9 12 -9 12 4 0 9 7 19 16 22 11 4 15 14 12 31 -6 29 12 48 36
39 9 -3 16 -2 16 3 0 5 7 18 15 29 14 17 15 10 14 -79 -2 -117 10 -142 50
-102 18 20 20 25 7 25 -9 0 -16 5 -16 11 0 5 5 7 12 3 7 -5 8 -3 3 6 -6 10
-11 9 -22 -5 -10 -15 -13 -16 -13 -3 0 15 30 48 45 48 4 0 14 8 21 18 11 15
12 11 9 -25 -3 -40 -2 -42 16 -32 11 5 29 7 40 4 10 -4 43 1 72 11 28 9 62 18
74 20 11 1 30 5 41 8 16 5 22 -1 36 -37 18 -48 23 -113 6 -87 -5 8 -10 11 -10
5 0 -5 -5 -3 -11 5 -8 12 -12 12 -16 2 -3 -9 -9 -10 -17 -3 -12 10 -128 -6
-181 -25 -29 -10 55 50 106 77 24 12 39 24 32 26 -7 2 -22 -1 -35 -8 -12 -7
-36 -13 -53 -15 -36 -3 -115 -35 -99 -41 6 -2 33 6 60 17 l49 20 -25 -20 c-14
-12 -52 -39 -85 -62 -42 -28 -54 -33 -40 -17 11 13 25 27 30 31 6 4 6 8 1 8
-4 0 -22 -12 -39 -26 -26 -22 -31 -32 -28 -63 1 -20 -1 -32 -6 -28 -4 5 -8 17
-8 28 0 33 -20 23 -28 -15 -6 -24 -15 -36 -26 -36 -25 0 -33 11 -20 27 15 17
2 17 -16 -1 -8 -7 -11 -16 -8 -20 4 -3 -3 -6 -15 -6 -11 0 -24 5 -28 12 -5 8
-2 9 11 4 18 -7 18 -6 0 14 -21 24 -26 25 -19 6 11 -28 -19 -28 -49 2 -18 16
-37 28 -43 25 -6 -2 -17 4 -25 14 -13 15 -12 16 6 9 14 -5 17 -4 9 4 -6 6 -18
8 -26 5 -14 -5 -13 -11 5 -45 18 -32 28 -39 72 -49 27 -6 68 -10 90 -10 22 1
50 -1 62 -5 16 -5 23 -2 28 14 4 11 11 18 16 14 6 -4 6 -11 -1 -19 -8 -10 -8
-15 0 -20 11 -7 68 48 71 67 1 4 2 12 3 17 1 13 14 24 29 27 7 2 32 10 57 19
25 9 61 18 81 20 19 1 46 8 59 15 22 12 22 11 -6 -27 -49 -66 -137 -167 -168
-193 l-29 -24 -18 23 c-21 26 -10 48 24 47 11 -1 22 4 24 11 5 13 -29 6 -61
-13 -15 -9 -16 -15 -7 -32 6 -11 11 -23 11 -26 0 -3 -32 -6 -71 -6 -49 0 -68
-3 -63 -11 4 -7 24 -9 53 -6 26 3 54 1 62 -4 7 -5 10 -9 5 -9 -6 0 -5 -5 1
-11 13 -13 166 6 203 26 14 8 18 14 10 15 -11 0 -11 3 -2 12 10 10 15 10 21
-1 7 -11 19 -7 58 22 63 46 97 83 88 97 -3 6 -1 9 6 8 18 -4 68 122 75 190 8
77 -23 187 -75 262 -44 65 -63 75 -162 92 -41 6 -75 13 -77 14 -2 1 4 13 13
27 16 25 16 25 -18 36 -50 17 -186 12 -245 -9z m188 -56 c0 -2 -7 -4 -15 -4
-8 0 -15 4 -15 10 0 5 7 7 15 4 8 -4 15 -8 15 -10z m-40 -8 c0 -2 -9 -6 -20
-9 -11 -3 -20 -1 -20 4 0 5 9 9 20 9 11 0 20 -2 20 -4z m-58 -41 c-2 -14 -8
-22 -13 -19 -5 3 -5 14 1 25 14 26 18 24 12 -6z m-37 -5 c-3 -5 -14 -10 -23
-9 -14 0 -13 2 3 9 27 11 27 11 20 0z m227 -52 c-3 -26 0 -28 32 -28 47 0 64
-8 60 -28 -13 -68 -15 -74 -30 -68 -8 3 -12 2 -9 -3 3 -5 1 -12 -4 -15 -15
-10 -101 -24 -96 -16 2 4 -2 16 -10 27 -17 24 -59 35 -75 19 -8 -8 -11 -7 -8
4 2 8 -3 15 -9 16 -7 1 -17 2 -23 3 -5 0 -7 8 -4 16 5 11 2 13 -10 9 -9 -3
-16 -1 -16 5 0 17 17 13 58 -12 50 -31 72 -25 72 20 0 30 3 35 20 30 26 -7 34
7 20 34 -10 18 -9 20 12 17 19 -2 22 -8 20 -30z m-312 -44 c0 -8 -4 -12 -10
-9 -5 3 -10 10 -10 16 0 5 5 9 10 9 6 0 10 -7 10 -16z m-20 -24 c0 -19 -11
-26 -23 -14 -8 8 3 34 14 34 5 0 9 -9 9 -20z m90 -25 c0 -9 -6 -12 -16 -8 -13
5 -13 7 -2 14 17 11 18 11 18 -6z m429 -44 c18 -25 19 -30 6 -41 -13 -11 -19
-8 -39 15 -25 28 -25 55 -1 55 8 0 23 -13 34 -29z m-312 -38 c-3 -10 -5 -4 -5
12 0 17 2 24 5 18 2 -7 2 -21 0 -30z m101 -22 c11 -7 10 -9 -3 -14 -9 -4 -13
-3 -10 3 3 6 1 10 -4 10 -6 0 -11 -5 -11 -11 0 -5 -5 -7 -11 -3 -8 4 -7 9 2
15 17 11 21 11 37 0z m162 -211 c0 -5 -2 -10 -4 -10 -3 0 -8 5 -11 10 -3 6 -1
10 4 10 6 0 11 -4 11 -10z m-583 -46 c-3 -3 -12 -4 -19 -1 -8 3 -5 6 6 6 11 1
17 -2 13 -5z m568 -53 c3 -5 1 -12 -5 -16 -5 -3 -10 1 -10 9 0 18 6 21 15 7z
m-222 -86 c-3 -9 -8 -14 -10 -11 -3 3 -2 9 2 15 9 16 15 13 8 -4z"/>
<path d="M1150 1060 c0 -13 11 -13 30 0 12 8 11 10 -7 10 -13 0 -23 -4 -23
-10z"/>
<path d="M1122 1050 c5 -18 85 -27 101 -11 6 6 -5 8 -32 4 -27 -4 -46 -1 -58
8 -14 12 -16 12 -11 -1z"/>
<path d="M755 1220 c-5 -9 1 -12 21 -9 4 0 10 -5 14 -11 4 -7 14 -10 21 -8 9
3 2 11 -18 21 -20 11 -34 13 -38 7z"/>
<path d="M626 1004 c-9 -23 -2 -28 13 -10 7 8 8 17 3 20 -6 3 -13 -1 -16 -10z"/>
<path d="M675 1010 c-7 -12 56 -80 75 -80 6 0 8 -4 5 -10 -3 -5 1 -10 10 -10
10 0 13 5 9 12 -4 6 -3 8 4 4 6 -3 9 -18 6 -32 -3 -16 -1 -23 6 -19 13 8 13
92 -1 101 -6 3 -16 1 -22 -5 -13 -13 -37 4 -37 25 0 8 -4 14 -9 14 -5 0 -16 3
-24 6 -8 3 -18 0 -22 -6z"/>
<path d="M657 953 c-14 -14 -6 -20 19 -15 19 3 22 7 12 13 -16 11 -23 11 -31
2z"/>
<path d="M631 902 c-8 -15 -4 -17 34 -17 24 0 50 -6 57 -13 19 -20 -27 -55
-64 -50 -15 3 -28 2 -28 -1 0 -9 81 -61 95 -61 5 0 21 -9 35 -20 33 -26 48
-25 25 0 -14 16 -16 23 -7 32 9 9 12 8 12 -5 0 -9 7 -17 16 -17 14 0 14 1 0
16 -9 8 -16 22 -16 30 0 8 -5 14 -11 14 -5 0 -7 -5 -4 -10 6 -9 -16 -40 -28
-40 -3 0 -5 32 -4 70 1 80 -10 99 -42 78 -17 -10 -25 -10 -41 -1 -16 11 -21
10 -29 -5z"/>
<path d="M756 834 c-4 -9 -4 -19 -1 -22 2 -3 7 3 11 12 4 9 4 19 1 22 -2 3 -7
-3 -11 -12z"/>
<path d="M1210 842 c0 -5 -15 -16 -32 -25 -18 -8 -28 -16 -23 -16 6 -1 28 10
50 24 25 15 33 24 23 25 -10 0 -18 -4 -18 -8z"/>
<path d="M871 777 c-6 -8 -8 -16 -5 -20 10 -9 34 4 34 19 0 18 -14 18 -29 1z"/>
<path d="M655 770 c3 -5 11 -10 16 -10 6 0 7 5 4 10 -3 6 -11 10 -16 10 -6 0
-7 -4 -4 -10z"/>
<path d="M1174 755 c-10 -8 -29 -15 -41 -15 -12 0 -25 -5 -28 -10 -4 -7 3 -9
22 -5 l28 6 -24 -20 c-13 -12 -19 -21 -13 -21 5 0 15 6 21 14 7 8 23 17 36 20
28 7 55 46 32 46 -7 0 -22 -7 -33 -15z"/>
<path d="M745 720 c10 -11 20 -20 23 -20 3 0 -3 9 -13 20 -10 11 -20 20 -23
20 -3 0 3 -9 13 -20z"/>
<path d="M1020 671 c0 -5 5 -13 10 -16 6 -3 10 -2 10 4 0 5 -4 13 -10 16 -5 3
-10 2 -10 -4z"/>
</g>
</svg>
